<svg width="57" height="56" viewBox="0 0 57 56" fill="none" xmlns="http://www.w3.org/2000/svg">
<g clip-path="url(#clip0_16250_2151)">
<path d="M29.7635 41.1648C29.7635 32.9868 17.6336 32.2259 17.6336 20.6343C17.6336 12.2673 24.1294 8.11878 30.5891 7.44073C29.9912 7.40708 29.3831 7.38379 28.5031 7.38379C26.9348 7.38379 26.1662 7.45108 24.8489 7.50801C12.7604 8.10584 6.32146 14.5706 5.92032 24.5111C5.88926 25.1633 5.82715 26.2606 5.82715 28.036C5.82715 29.7725 5.88926 30.8853 5.92032 31.5272C6.31628 41.2037 12.4239 47.5831 23.8836 48.4656C25.7469 48.1136 29.7635 46.7238 29.7635 41.1648Z" fill="#E41720"/>
<path d="M51.08 24.5114C50.7022 15.0937 44.8973 8.79455 34.0148 7.66101C32.0893 8.0518 28.2824 9.50884 28.2824 14.9307C28.2824 23.101 40.4045 23.8618 40.4045 35.4586C40.4045 42.6973 34.9335 48.0026 26.6934 48.6186C27.2291 48.6341 27.7726 48.6393 28.505 48.6393C30.0707 48.6393 30.8316 48.5953 32.1618 48.5228C44.2425 47.9379 50.6789 41.4783 51.08 31.5275C51.1033 30.8857 51.168 29.7728 51.168 28.0363C51.168 26.2609 51.1033 25.1636 51.08 24.5114Z" fill="#E41720"/>
<path d="M40.4055 35.4558C40.4055 23.859 28.2834 23.0982 28.2834 14.9279C28.2834 9.50863 32.0903 8.049 34.0158 7.65821C33.405 7.5961 32.7917 7.54434 32.1602 7.50552C31.5649 7.48223 31.0913 7.44858 30.5893 7.43823C24.1322 8.11887 17.6338 12.2674 17.6338 20.6344C17.6338 32.226 29.7637 32.9869 29.7637 41.1649C29.7637 46.7239 25.7471 48.1137 23.8864 48.4631C24.2073 48.4864 24.5334 48.5071 24.8517 48.5226C25.5608 48.5588 26.1017 48.5951 26.6943 48.6184C34.9319 48.0024 40.4055 42.6944 40.4055 35.4558Z" fill="white"/>
<path d="M45.5977 45.5559C45.5977 45.0064 46.0468 44.5573 46.599 44.5573C47.1512 44.5573 47.5977 45.0038 47.5977 45.5559C47.5977 46.1108 47.1512 46.5599 46.599 46.5599C46.0442 46.5599 45.5977 46.1108 45.5977 45.5559ZM47.4761 45.5559C47.4761 45.0698 47.0825 44.6788 46.599 44.6788C46.1102 44.6788 45.7192 45.0698 45.7192 45.5559C45.7192 46.0473 46.1102 46.4384 46.599 46.4384C47.0851 46.4384 47.4761 46.0473 47.4761 45.5559ZM47.0957 46.1187H46.9345L46.6148 45.6008H46.3638V46.1187H46.2265V45.0011H46.7126C46.8077 45.0011 46.9028 45.0064 46.9847 45.0566C47.0693 45.1015 47.1115 45.2019 47.1115 45.297C47.1115 45.5163 46.9556 45.5982 46.7575 45.6035L47.0957 46.1187ZM46.5752 45.4925C46.7337 45.4925 46.9768 45.5189 46.9768 45.2917C46.9768 45.12 46.8262 45.0962 46.6862 45.0962H46.3691V45.4925H46.5752Z" fill="#2C2A29"/>
</g>
<defs>
<clipPath id="clip0_16250_2151">
<rect width="45.8075" height="41.6667" fill="white" transform="translate(5.5957 7.1665)"/>
</clipPath>
</defs>
</svg>
